<?xml version="1.0" encoding="UTF-8" standalone="no"?>
<svg width="40px" height="40px" viewBox="0 0 40 40" version="1.1" xmlns="http://www.w3.org/2000/svg" xmlns:xlink="http://www.w3.org/1999/xlink">
    <!-- Generator: Sketch 42 (36781) - http://www.bohemiancoding.com/sketch -->
    <title>facebook_L</title>
    <desc>Created with Sketch.</desc>
    <defs></defs>
    <g id="Page-1" stroke="none" stroke-width="1" fill="none" fill-rule="evenodd">
        <g id="Artboard-1-Copy-4" transform="translate(-1225.000000, -324.000000)" fill="#9E2723">
            <g id="Group-9" transform="translate(1225.000000, 324.000000)">
                <path d="M20,40 C8.95430446,40 0,31.0456955 0,20 C0,8.95430446 8.95430446,0 20,0 C31.0456955,0 40,8.95430446 40,20 C40,31.0456955 31.0456955,40 20,40 Z M20,38.4 C30.1620399,38.4 38.4,30.1620399 38.4,20 C38.4,9.8379601 30.1620399,1.6 20,1.6 C9.8379601,1.6 1.6,9.8379601 1.6,20 C1.6,30.1620399 9.8379601,38.4 20,38.4 Z M22.4064,7.0896 L26.5728,7.0896 L26.5728,11.6592 L24.0864,11.6592 C23.3472,11.6592 22.8768,11.8608 22.6416,12.264 C22.4736,12.5328 22.4064,13.0032 22.4064,13.6416 L22.4064,15.7248 L26.64,15.7248 L26.136,20.328 L22.4064,20.328 L22.4064,33.6 L16.9296,33.6 L16.9296,20.328 L14.2416,20.328 L14.2416,15.7248 L16.9296,15.7248 L16.9296,12.9696 C16.9296,10.1472 17.904,8.3328 19.8192,7.56 C20.76,7.1904 21.5664,7.0896 22.4064,7.0896 Z" id="facebook_L"></path>
            </g>
        </g>
    </g>
</svg>