<?xml version="1.0" encoding="UTF-8" standalone="no"?>
<svg width="40px" height="40px" viewBox="0 0 40 40" version="1.1" xmlns="http://www.w3.org/2000/svg" xmlns:xlink="http://www.w3.org/1999/xlink">
    <!-- Generator: Sketch 42 (36781) - http://www.bohemiancoding.com/sketch -->
    <title>twitter_L</title>
    <desc>Created with Sketch.</desc>
    <defs></defs>
    <g id="Page-1" stroke="none" stroke-width="1" fill="none" fill-rule="evenodd">
        <g id="Artboard-1-Copy-4" transform="translate(-1317.000000, -324.000000)" fill="#9E2723">
            <g id="Group-9" transform="translate(1225.000000, 324.000000)">
                <path d="M112,40 C100.954304,40 92,31.0456955 92,20 C92,8.95430446 100.954304,0 112,0 C123.045696,0 132,8.95430446 132,20 C132,31.0456955 123.045696,40 112,40 Z M112,38.4 C122.16204,38.4 130.4,30.1620399 130.4,20 C130.4,9.8379601 122.16204,1.6 112,1.6 C101.83796,1.6 93.6,9.8379601 93.6,20 C93.6,30.1620399 101.83796,38.4 112,38.4 Z M106.120898,14.8775252 C109.966231,16.8188582 113.21598,16.7068582 113.21598,16.7068582 C113.21598,16.7068582 111.98398,12.4135254 115.791979,10.509526 C119.599979,8.60552638 122.220429,11.8156081 122.220429,11.8156081 C122.220429,11.8156081 122.884561,11.6332976 123.379404,11.450987 C123.874247,11.2686764 124.590467,10.9431218 124.590467,10.9431218 L123.417048,13.0376087 L125.223936,12.8460783 C125.223936,12.8460783 125.001232,13.1716977 124.278085,13.8349217 C123.554939,14.4981457 123.256895,14.8407752 123.256895,14.8407752 C123.256895,14.8407752 123.515222,20.0086548 120.792895,23.9874402 C118.070568,27.9662254 114.553162,30.3541888 109.443564,30.8567723 C104.333966,31.3593557 101.006232,29.2887725 101.006232,29.2887725 C101.006232,29.2887725 103.240912,29.1612382 104.664898,28.6167727 C106.088885,28.0723073 108.136898,26.6381064 108.136898,26.6381064 C108.136898,26.6381064 105.224898,25.7421066 104.179565,24.7341067 C103.134232,23.7261069 102.872898,23.1287737 102.872898,23.1287737 L105.747565,23.0914404 C105.747565,23.0914404 102.723565,21.4861073 101.864899,20.2167742 C101.006232,18.9474412 100.894232,17.7154414 100.894232,17.7154414 L103.104302,18.6079082 C103.104302,18.6079082 101.267566,16.1101083 101.006232,14.1687753 C100.744899,12.2274424 101.342232,11.1821092 101.342232,11.1821092 C101.342232,11.1821092 102.275565,12.9361922 106.120898,14.8775252 Z" id="twitter_L"></path>
            </g>
        </g>
    </g>
</svg>